Coordinates
version=1
nRows=29
nColumns=20
inDegrees=yes

Units are S.I. units (second, meters, Newtons, ...)
Angles are in degrees.

endheader
time	Th_rotX	Th_rotY	Th_rotZ	Th_transX	Th_transY	Th_transZ	Clav_rotZ_right	Clav_rotY_right	Clav_rotX_right	Scap_rotZ_right	Scap_rotY_right	Scap_rotX_right	Hum_rotZ_right	Hum_rotY_right	Hum_rotZZ_right	Elb_flex_right	Elb_ProSup_right	wrist_dev_r	wrist_flex_r
      2.90333333	      0.52653953	     -1.62155667	      2.03645422	      0.49327986	      1.41678008	     -0.42764996	     13.67141426	     19.84887464	     20.14336183	    -19.23656936	     -4.81708509	     23.18213660	      2.65375729	    -36.63936454	    -68.74232226	     16.06238032	     50.43427696	     62.36226666	    -13.23421892
      2.90666667	      0.52625355	     -1.62162041	      2.03602474	      0.49328406	      1.41677597	     -0.42763802	     13.67157835	     19.84939148	     20.14339974	    -19.23644465	     -4.81717700	     23.18133778	      2.65357451	    -36.64028702	    -68.74263115	     16.06212640	     50.43408590	     62.36227878	    -13.23421194
      2.91000000	      0.52609142	     -1.62145728	      2.03585089	      0.49330408	      1.41677024	     -0.42763176	     13.67157155	     19.84968887	     20.14369759	    -19.23623793	     -4.81714322	     23.18086172	      2.65332706	    -36.64091343	    -68.74289897	     16.06197600	     50.43389813	     62.36228865	    -13.23420110
      2.91333333	      0.52579861	     -1.62140935	      2.03553976	      0.49331768	      1.41677113	     -0.42762459	     13.67164341	     19.85015851	     20.14387019	    -19.23609656	     -4.81715768	     23.18021259	      2.65309888	    -36.64171386	    -68.74318580	     16.06179211	     50.43369837	     62.36230653	    -13.23419761
      2.91666667	      0.52546096	     -1.62133000	      2.03527103	      0.49334198	      1.41676799	     -0.42761812	     13.67169903	     19.85066631	     20.14409785	    -19.23589965	     -4.81709894	     23.17953018	      2.65279671	    -36.64254980	    -68.74348181	     16.06162021	     50.43349620	     62.36231656	    -13.23419217
      2.92000000	      0.52531178	     -1.62121867	      2.03510350	      0.49336637	      1.41676258	     -0.42761930	     13.67174067	     19.85096212	     20.14436798	    -19.23565589	     -4.81710846	     23.17907028	      2.65254747	    -36.64316628	    -68.74377494	     16.06147802	     50.43332038	     62.36233837	    -13.23418431
      2.92333333	      0.52498084	     -1.62116755	      2.03485306	      0.49338420	      1.41676075	     -0.42761140	     13.67182368	     19.85144734	     20.14459760	    -19.23546543	     -4.81706186	     23.17841834	      2.65225370	    -36.64396018	    -68.74407813	     16.06134485	     50.43314605	     62.36235931	    -13.23417626
      2.92666667	      0.52479238	     -1.62127806	      2.03451313	      0.49339982	      1.41675455	     -0.42761074	     13.67203680	     19.85186225	     20.14463651	    -19.23526949	     -4.81721057	     23.17772361	      2.65208407	    -36.64478734	    -68.74440442	     16.06116740	     50.43298925	     62.36237909	    -13.23416490
      2.93000000	      0.52453519	     -1.62122412	      2.03431880	      0.49342742	      1.41675578	     -0.42761135	     13.67212193	     19.85226445	     20.14487999	    -19.23502356	     -4.81720892	     23.17718010	      2.65179834	    -36.64548147	    -68.74470463	     16.06108224	     50.43282123	     62.36239634	    -13.23415308
      2.93333333	      0.52418342	     -1.62132265	      2.03398250	      0.49344166	      1.41675003	     -0.42760104	     13.67231179	     19.85282810	     20.14497892	    -19.23486301	     -4.81722093	     23.17635259	      2.65153890	    -36.64643389	    -68.74503838	     16.06094410	     50.43265443	     62.36241176	    -13.23414282
      2.93666667	      0.52409637	     -1.62104980	      2.03404799	      0.49348085	      1.41674854	     -0.42760787	     13.67224033	     19.85296318	     20.14547133	    -19.23453477	     -4.81712747	     23.17617420	      2.65121704	    -36.64681173	    -68.74528715	     16.06097099	     50.43248126	     62.36243131	    -13.23412957
      2.94000000	      0.52373500	     -1.62118555	      2.03368093	      0.49349525	      1.41674604	     -0.42759943	     13.67246434	     19.85354813	     20.14553004	    -19.23436959	     -4.81717808	     23.17533196	      2.65095647	    -36.64776736	    -68.74560915	     16.06086914	     50.43231467	     62.36244456	    -13.23411692
      2.94333333	      0.52345527	     -1.62111406	      2.03352368	      0.49352061	      1.41673852	     -0.42759493	     13.67253368	     19.85396513	     20.14582658	    -19.23415296	     -4.81708614	     23.17473292	      2.65063098	    -36.64852375	    -68.74588457	     16.06083778	     50.43210672	     62.36244001	    -13.23410501
      2.94666667	      0.52327653	     -1.62097371	      2.03351157	      0.49355134	      1.41673503	     -0.42759967	     13.67255872	     19.85423230	     20.14623206	    -19.23386606	     -4.81699366	     23.17436445	      2.65029939	    -36.64907065	    -68.74614588	     16.06087322	     50.43192245	     62.36244733	    -13.23409027
      2.95000000	      0.52291949	     -1.62093353	      2.03334051	      0.49357548	      1.41673154	     -0.42759078	     13.67263985	     19.85473336	     20.14652242	    -19.23366844	     -4.81686769	     23.17368955	      2.64993746	    -36.64989884	    -68.74642809	     16.06087295	     50.43172359	     62.36244826	    -13.23407803
      2.95333333	      0.52265846	     -1.62095119	      2.03314457	      0.49360140	      1.41672660	     -0.42758935	     13.67278559	     19.85515269	     20.14673615	    -19.23343083	     -4.81685787	     23.17306588	      2.64963582	    -36.65067076	    -68.74671419	     16.06085921	     50.43152760	     62.36244787	    -13.23406405
      2.95666667	      0.52235766	     -1.62092007	      2.03304215	      0.49362939	      1.41672342	     -0.42758911	     13.67289436	     19.85557139	     20.14706081	    -19.23315804	     -4.81675655	     23.17250041	      2.64926398	    -36.65139575	    -68.74699511	     16.06090946	     50.43133469	     62.36244500	    -13.23404778
      2.96000000	      0.52217799	     -1.62084329	      2.03303436	      0.49365828	      1.41671681	     -0.42759017	     13.67296674	     19.85585706	     20.14744516	    -19.23287116	     -4.81665086	     23.17205964	      2.64890366	    -36.65199530	    -68.74726348	     16.06098853	     50.43114922	     62.36244461	    -13.23402968
      2.96333333	      0.52169977	     -1.62085770	      2.03286290	      0.49368094	      1.41671430	     -0.42758339	     13.67310145	     19.85646169	     20.14775417	    -19.23264802	     -4.81646434	     23.17129452	      2.64846361	    -36.65290108	    -68.74754323	     16.06105558	     50.43092392	     62.36242747	    -13.23401563
      2.96666667	      0.52150755	     -1.62069306	      2.03298789	      0.49370995	      1.41670537	     -0.42758294	     13.67310302	     19.85669569	     20.14829365	    -19.23234950	     -4.81622867	     23.17093996	      2.64802231	    -36.65343461	    -68.74780001	     16.06120519	     50.43072551	     62.36241497	    -13.23399510
      2.97000000	      0.52100100	     -1.62079829	      2.03280389	      0.49372862	      1.41670095	     -0.42757538	     13.67329957	     19.85736665	     20.14855645	    -19.23214126	     -4.81603651	     23.17005862	      2.64755984	    -36.65445347	    -68.74809719	     16.06126946	     50.43049465	     62.36238324	    -13.23397825
      2.97333333	      0.52065706	     -1.62061710	      2.03291804	      0.49376239	      1.41669891	     -0.42757690	     13.67328840	     19.85775257	     20.14913802	    -19.23183101	     -4.81571792	     23.16962688	      2.64703212	    -36.65505289	    -68.74834303	     16.06146591	     50.43027046	     62.36236025	    -13.23396007
      2.97666667	      0.52037627	     -1.62041981	      2.03310968	      0.49379410	      1.41669553	     -0.42758346	     13.67326884	     19.85803054	     20.14976622	    -19.23149998	     -4.81541404	     23.16932433	      2.64650880	    -36.65553144	    -68.74858208	     16.06170552	     50.43006015	     62.36234459	    -13.23393972
      2.98000000	      0.52002640	     -1.62026996	      2.03328557	      0.49382121	      1.41669505	     -0.42758616	     13.67327906	     19.85838962	     20.15038234	    -19.23118379	     -4.81508384	     23.16894312	      2.64595704	    -36.65608210	    -68.74882669	     16.06196687	     50.42985812	     62.36233149	    -13.23391872
      2.98333333	      0.51963692	     -1.62013926	      2.03346007	      0.49384930	      1.41670196	     -0.42759886	     13.67331551	     19.85876450	     20.15099050	    -19.23084299	     -4.81479758	     23.16862616	      2.64540219	    -36.65654779	    -68.74904987	     16.06228077	     50.42965354	     62.36232229	    -13.23389859
      2.98666667	      0.51914929	     -1.62004136	      2.03358512	      0.49387364	      1.41670224	     -0.42759948	     13.67336743	     19.85925053	     20.15158384	    -19.23053291	     -4.81443618	     23.16812890	      2.64478894	    -36.65717224	    -68.74928902	     16.06257410	     50.42944282	     62.36230005	    -13.23387496
      2.99000000	      0.51870102	     -1.61991033	      2.03379472	      0.49390007	      1.41669711	     -0.42759840	     13.67338769	     19.85968984	     20.15225061	    -19.23020339	     -4.81400950	     23.16766223	      2.64413621	    -36.65776540	    -68.74952596	     16.06289747	     50.42923250	     62.36227229	    -13.23384882
      2.99333333	      0.51818471	     -1.61979530	      2.03398829	      0.49392249	      1.41669100	     -0.42759694	     13.67341997	     19.86018138	     20.15292563	    -19.22989554	     -4.81354721	     23.16714511	      2.64345409	    -36.65842231	    -68.74974879	     16.06323647	     50.42899004	     62.36223571	    -13.23382707
      2.99666667	      0.51785197	     -1.61942712	      2.03446841	      0.49396154	      1.41669105	     -0.42760524	     13.67326600	     19.86038018	     20.15386800	    -19.22947781	     -4.81301814	     23.16707986	      2.64273238	    -36.65866512	    -68.74993151	     16.06368676	     50.42876149	     62.36220163	    -13.23379962
